<?xml version="1.0" encoding="UTF-8" standalone="no"?>
<svg
   xmlns:dc="http://purl.org/dc/elements/1.1/"
   xmlns:cc="http://creativecommons.org/ns#"
   xmlns:rdf="http://www.w3.org/1999/02/22-rdf-syntax-ns#"
   xmlns:svg="http://www.w3.org/2000/svg"
   xmlns="http://www.w3.org/2000/svg"
   xmlns:sodipodi="http://sodipodi.sourceforge.net/DTD/sodipodi-0.dtd"
   xmlns:inkscape="http://www.inkscape.org/namespaces/inkscape"
   inkscape:version="1.0 (6e3e5246a0, 2020-05-07)"
   sodipodi:docname="plasticos.svg"
   id="svg1502"
   version="1.1"
   width="39.338253pt"
   viewBox="-23 0 39.338253 43.423833"
   height="43.421322pt">
  <metadata
     id="metadata1508">
    <rdf:RDF>
      <cc:Work
         rdf:about="">
        <dc:format>image/svg+xml</dc:format>
        <dc:type
           rdf:resource="http://purl.org/dc/dcmitype/StillImage" />
        <dc:title></dc:title>
      </cc:Work>
    </rdf:RDF>
  </metadata>
  <defs
     id="defs1506">
    <clipPath
       id="clip0">
      <rect
         width="64"
         height="64"
         fill="white"
         id="rect2085" />
    </clipPath>
  </defs>
  <sodipodi:namedview
     inkscape:current-layer="svg1502"
     inkscape:window-maximized="1"
     inkscape:window-y="27"
     inkscape:window-x="37"
     inkscape:cy="29.343935"
     inkscape:cx="24.255578"
     inkscape:zoom="6.1975309"
     showgrid="false"
     id="namedview1504"
     inkscape:window-height="713"
     inkscape:window-width="1329"
     inkscape:pageshadow="2"
     inkscape:pageopacity="0"
     guidetolerance="10"
     gridtolerance="10"
     objecttolerance="10"
     borderopacity="1"
     bordercolor="#666666"
     pagecolor="#ffffff" />
  <g
     id="g2115">
    <path
       d="M -11.57811,7.6821722 V 5.7759486 h 0.714747 c 0.394716,0 0.714746,-0.3200306 0.714746,-0.7147466 V 2.2022158 c 0,-1.184497 -0.960091,-2.14423975 -2.144239,-2.14423975 h -5.717973 c -1.184497,0 -2.14424,0.95974275 -2.14424,2.14423975 V 5.061202 c 0,0.394716 0.320031,0.7147466 0.714747,0.7147466 h 0.714746 v 1.9062236 l -4.145739,5.5270708 c -0.09283,0.123545 -0.14274,0.273963 -0.14274,0.428918 v 4.288479 c 0.0014,0.737083 0.382152,1.421466 1.007555,1.810947 -0.645296,0.663445 -1.006857,1.551992 -1.007555,2.477532 v 1.429493 c 0.0031,1.129007 0.541644,2.189959 1.45148,2.858986 -0.909836,0.66868 -1.448339,1.729632 -1.45148,2.858988 v 1.429493 c 6.98e-4,0.925191 0.362259,1.814087 1.007555,2.477182 -0.625403,0.389831 -1.006159,1.074214 -1.007555,1.811297 v 7.147465 c 0,0.394716 0.320031,0.714747 0.714747,0.714747 h 14.294931 c 0.394716,0 0.714747,-0.320031 0.714747,-0.714747 v -7.147465 c -0.0014,-0.737083 -0.382502,-1.421466 -1.007905,-1.811297 0.645296,-0.663095 1.006857,-1.551991 1.007905,-2.477182 v -1.429493 c -0.0032,-1.129356 -0.541994,-2.190308 -1.451829,-2.858988 0.909835,-0.669027 1.448688,-1.729979 1.451829,-2.858986 v -1.429493 c -0.001,-0.92554 -0.362609,-1.814087 -1.007905,-2.477532 0.625403,-0.389481 1.006508,-1.073864 1.007905,-1.810947 v -4.288479 c 0,-0.154955 -0.05026,-0.305373 -0.14309,-0.428918 z m -7.147466,-5.4799564 c 0,-0.394716 0.320031,-0.7147466 0.714747,-0.7147466 h 5.717973 c 0.394716,0 0.714746,0.3200306 0.714746,0.7147466 v 2.1442397 h -7.147466 z M -8.719124,23.644612 c 0,1.184148 -0.960091,2.14424 -2.144239,2.14424 -0.394716,0 -0.714747,0.320031 -0.714747,0.714746 0,0.394716 0.320031,0.714747 0.714747,0.714747 1.184148,0 2.144239,0.959743 2.144239,2.144241 v 1.429493 c 0,1.184147 -0.960091,2.144239 -2.144239,2.144239 -0.394716,0 -0.714747,0.320031 -0.714747,0.714747 0,0.394716 0.320031,0.714746 0.714747,0.714746 h 1.429493 c 0.394716,0 0.714746,0.320031 0.714746,0.714747 v 6.432718 h -12.865438 v -6.432718 c 0,-0.394716 0.320031,-0.714747 0.714747,-0.714747 h 5.028004 c 0.394717,0 0.714747,-0.32003 0.714747,-0.714746 0,-0.394716 -0.32003,-0.714747 -0.714747,-0.714747 h -3.598511 c -1.184497,0 -2.14424,-0.960092 -2.14424,-2.144239 v -1.429493 c 0,-1.184498 0.959743,-2.144241 2.14424,-2.144241 h 3.573733 c 0.394716,0 0.714746,-0.320031 0.714746,-0.714747 0,-0.394715 -0.32003,-0.714746 -0.714746,-0.714746 h -3.573733 c -1.184497,0 -2.14424,-0.960092 -2.14424,-2.14424 v -1.429493 c 0,-1.184497 0.959743,-2.144239 2.14424,-2.144239 h 4.288479 c 0.394716,0 0.714747,-0.320031 0.714747,-0.714747 0,-0.394716 -0.320031,-0.714746 -0.714747,-0.714746 h -5.717972 c -0.394716,0 -0.714747,-0.320031 -0.714747,-0.714747 v -4.050463 l 4.145391,-5.52742 c 0.09283,-0.123545 0.143089,-0.2739629 0.143089,-0.4285687 V 5.7759486 h 4.288479 v 2.1442397 c 0,0.1546058 0.0499,0.3050237 0.14274,0.4285687 l 4.145739,5.52742 v 4.050463 c 0,0.394716 -0.32003,0.714747 -0.714746,0.714747 h -1.455319 c -0.394716,0 -0.714747,0.32003 -0.714747,0.714746 0,0.394716 0.320031,0.714747 0.714747,0.714747 h 0.02582 c 1.184148,0 2.14424,0.959742 2.14424,2.144239 z m 0,0"
       id="path1486"
       style="stroke-width:0.0893434;stroke:#322153;stroke-opacity:1;fill:#322153;fill-opacity:1" />
    <path
       d="m -12.500161,18.848691 c -0.0698,-0.06317 -0.14937,-0.114122 -0.235922,-0.150418 -0.130176,-0.05724 -0.275359,-0.07224 -0.414609,-0.04258 -0.04468,0.0077 -0.0883,0.02199 -0.12878,0.04258 -0.04537,0.0157 -0.08865,0.03734 -0.128431,0.06457 -0.0377,0.02617 -0.07329,0.0548 -0.107143,0.08586 -0.06491,0.06805 -0.115866,0.148324 -0.150417,0.235573 -0.07608,0.173103 -0.07608,0.370286 0,0.543389 0.03665,0.08655 0.08725,0.166123 0.150417,0.235922 0.07085,0.06282 0.150419,0.115518 0.235574,0.157049 0.08655,0.0342 0.178687,0.0513 0.271869,0.05025 0.189854,0.0014 0.372729,-0.07329 0.507442,-0.207305 0.06282,-0.0698 0.113424,-0.149371 0.150069,-0.235922 0.07608,-0.173103 0.07608,-0.370286 0,-0.543388 -0.03455,-0.08725 -0.08551,-0.16752 -0.150069,-0.235575 z m 0,0"
       id="path1488"
       style="stroke-width:0.0893434;stroke:#322153;stroke-opacity:1;fill:#322153;fill-opacity:1" />
    <path
       d="m -13.007603,25.788852 h -0.714747 c -0.394716,0 -0.714746,0.320031 -0.714746,0.714746 0,0.394716 0.32003,0.714747 0.714746,0.714747 h 0.714747 c 0.394716,0 0.714747,-0.320031 0.714747,-0.714747 0,-0.394715 -0.320031,-0.714746 -0.714747,-0.714746 z m 0,0"
       id="path1490"
       style="stroke-width:0.0893434;stroke:#322153;stroke-opacity:1;fill:#322153;fill-opacity:1" />
    <path
       d="m -13.007603,32.936318 h -0.714747 c -0.394716,0 -0.714746,0.320031 -0.714746,0.714747 0,0.394716 0.32003,0.714746 0.714746,0.714746 h 0.714747 c 0.394716,0 0.714747,-0.32003 0.714747,-0.714746 0,-0.394716 -0.320031,-0.714747 -0.714747,-0.714747 z m 0,0"
       id="path1492"
       style="stroke-width:0.0893434;stroke:#322153;stroke-opacity:1;fill:#322153;fill-opacity:1" />
    <path
       d="M 3.404346,7.2532544 2.911213,5.4119443 3.601529,5.2269758 C 3.982984,5.1247196 4.209134,4.7327955 4.106878,4.3513415 L 3.367003,1.5904234 C 3.060933,0.4460611 1.884463,-0.23308769 0.740449,0.07368091 L -4.782434,1.5537787 c -1.143664,0.3067687 -1.822463,1.4821917 -1.516045,2.6258561 l 0.739875,2.761965 c 0.102256,0.3814541 0.49418,0.6076044 0.875635,0.505348 l 0.690316,-0.1853175 0.493133,1.84131 -2.573157,6.4121287 c -0.05759,0.143438 -0.067,0.301533 -0.02687,0.450904 l 1.109812,4.14539 c 0.192647,0.711257 0.737431,1.273492 1.442406,1.488125 -0.451952,0.80758 -0.571309,1.759645 -0.332245,2.653776 l 0.369937,1.380982 c 0.295601,1.090617 1.091314,1.976024 2.14424,2.385746 -0.706023,0.881568 -0.952065,2.045474 -0.662397,3.137138 l 0.370285,1.380982 c 0.240111,0.893782 0.819446,1.658435 1.614462,2.132025 -0.503253,0.538503 -0.694155,1.29827 -0.50465,2.010574 L 1.11702,42.89391 c 0.102257,0.381454 0.49418,0.607604 0.875635,0.505348 l 13.803891,-3.702163 c 0.381455,-0.102256 0.607605,-0.49453 0.505349,-0.875635 l -1.664718,-6.2132 c -0.192297,-0.711605 -0.737082,-1.274189 -1.442405,-1.488823 0.4523,-0.807579 0.571657,-1.759993 0.332594,-2.654124 l -0.370287,-1.380634 c -0.2956,-1.090617 -1.091313,-1.976022 -2.144239,-2.386094 0.706022,-0.881219 0.952065,-2.045474 0.662397,-3.136789 l -0.370286,-1.380982 c -0.24011,-0.893783 -0.819097,-1.658784 -1.614462,-2.132025 0.503604,-0.538154 0.694156,-1.297921 0.50465,-2.009875 l -1.11016,-4.14574 C 9.045191,11.744152 8.957591,11.611882 8.83649,11.516606 Z M -4.917496,3.8096976 C -5.019403,3.4285925 -4.793253,3.0370174 -4.412147,2.9347613 L 1.110736,1.4543146 C 1.49184,1.3520582 1.884113,1.5785575 1.98637,1.9596627 L 2.540927,4.0327068 -4.359449,5.8809967 Z M 10.297392,21.928942 c 0.30642,1.144013 -0.37238,2.319436 -1.516044,2.626205 -0.382152,0.101558 -0.60935,0.493831 -0.507791,0.875983 0.101559,0.381803 0.493831,0.60935 0.875984,0.507792 1.144012,-0.307118 2.319785,0.371682 2.626553,1.515694 l 0.369589,1.380983 c 0.306419,1.143664 -0.37238,2.319436 -1.516045,2.626205 -0.381454,0.102256 -0.607604,0.494181 -0.505348,0.875286 0.102256,0.381454 0.49418,0.607604 0.875634,0.505348 l 1.379587,-0.370286 c 0.381105,-0.102256 0.773029,0.124242 0.875285,0.505348 L 14.735243,38.501081 2.30989,41.831213 0.830491,36.307633 C 0.728234,35.926178 0.954385,35.534254 1.335838,35.431998 L 6.195976,34.131284 C 6.57743,34.029028 6.80358,33.637105 6.701324,33.255651 6.599068,32.874196 6.207144,32.648046 5.825689,32.750302 l -3.475664,0.92938 c -1.143664,0.306071 -2.319436,-0.37238 -2.625856,-1.516044 l -0.373776,-1.378889 c -0.30642,-1.143664 0.372031,-2.319436 1.515696,-2.625856 L 4.31837,27.23405 C 4.699824,27.131794 4.925975,26.739521 4.823718,26.358416 4.721462,25.976961 4.329538,25.750811 3.948084,25.853067 l -3.451235,0.924844 c -1.144362,0.306768 -2.320484,-0.37238 -2.626903,-1.516743 l -0.370984,-1.380284 c -0.306769,-1.143664 0.372031,-2.319785 1.516044,-2.626555 l 4.145391,-1.109811 c 0.253023,-0.06073 0.452998,-0.253721 0.522449,-0.504301 0.06945,-0.25058 -0.0024,-0.518959 -0.18811,-0.701136 C 3.30907,18.757254 3.039295,18.690246 2.79046,18.764234 l -5.522884,1.4794 C -3.113877,20.34589 -3.505801,20.11974 -3.608057,19.738285 l -1.048738,-3.91226 2.573158,-6.4121276 c 0.05759,-0.1434384 0.06736,-0.3018832 0.02722,-0.4509051 L -2.610974,6.8899481 1.534416,5.7801366 2.09002,7.8528318 C 2.1298,8.0022027 2.217055,8.1348217 2.338506,8.230098 l 5.432143,4.265795 1.048389,3.912609 c 0.102256,0.381453 -0.124243,0.773727 -0.506047,0.875285 l -1.405063,0.376917 c -0.379709,0.103303 -0.604114,0.49418 -0.502556,0.874238 0.101907,0.380059 0.491738,0.606558 0.872144,0.506396 l 0.02513,-0.0063 c 1.143665,-0.30642 2.319088,0.37238 2.625857,1.516044 z m 0,0"
       id="path1494"
       style="stroke-width:0.0893434;stroke:#322153;stroke-opacity:1;fill:#322153;fill-opacity:1" />
    <path
       d="M 5.4041,18.27808 C 5.32034,18.23516 5.229951,18.20653 5.136769,18.19398 4.996123,18.172 4.851987,18.19498 4.724952,18.25959 c -0.04083,0.0192 -0.07888,0.04468 -0.112726,0.07503 -0.03978,0.02653 -0.07608,0.05863 -0.107143,0.09493 -0.02967,0.03525 -0.05688,0.07224 -0.08167,0.110982 -0.04468,0.08271 -0.07329,0.173102 -0.0841,0.266633 -0.01641,0.09248 -0.01117,0.187412 0.0157,0.277105 0.02129,0.09144 0.06421,0.175894 0.124941,0.247438 0.05759,0.07434 0.127383,0.138552 0.206607,0.189506 0.08481,0.04223 0.174847,0.07259 0.268029,0.09004 0.09213,0.01152 0.185667,0.0042 0.27501,-0.02164 0.18427,-0.04747 0.341668,-0.166821 0.436945,-0.331547 0.04258,-0.08341 0.07119,-0.173801 0.0841,-0.266635 C 5.779255,18.80437 5.727265,18.613817 5.607905,18.46689 5.552415,18.39151 5.483313,18.327639 5.40409,18.278082 Z m 0,0"
       id="path1496"
       style="stroke-width:0.0893434;stroke:#322153;stroke-opacity:1;fill:#322153;fill-opacity:1" />
    <path
       d="m 6.710049,25.112496 -0.690666,0.185317 c -0.381105,0.102256 -0.607255,0.494181 -0.505348,0.875285 0.102256,0.381455 0.49453,0.607605 0.875634,0.505349 L 7.080335,26.493478 C 7.46144,26.391222 7.68794,25.999297 7.585684,25.617843 7.483427,25.23639 7.091154,25.010239 6.710049,25.112496 Z m 0,0"
       id="path1498"
       style="stroke-width:0.0893434;stroke:#322153;stroke-opacity:1;fill:#322153;fill-opacity:1" />
    <path
       d="M 8.559735,32.017059 7.869418,32.20133 c -0.381454,0.102256 -0.607605,0.49418 -0.505349,0.875634 0.102258,0.381454 0.494181,0.607605 0.875287,0.505348 l 0.690665,-0.184968 c 0.252674,-0.06073 0.452649,-0.253721 0.5221,-0.504302 0.06945,-0.25058 -0.0024,-0.518959 -0.18811,-0.701135 C 9.078694,32.010079 8.808919,31.943071 8.559735,32.017059 Z m 0,0"
       id="path1500"
       style="stroke-width:0.0893434;stroke:#322153;stroke-opacity:1;fill:#322153;fill-opacity:1" />
  </g>
</svg>
